<svg width="149" height="92" viewBox="0 0 149 92" fill="none" xmlns="http://www.w3.org/2000/svg">
<path d="M11.65 58.4H22.85V65H3.1V29.9H11.65V58.4ZM53.2281 50.6C53.2281 51.4 53.1781 52.2333 53.0781 53.1H33.7281C33.8615 54.8333 34.4115 56.1667 35.3781 57.1C36.3781 58 37.5948 58.45 39.0281 58.45C41.1615 58.45 42.6448 57.55 43.4781 55.75H52.5781C52.1115 57.5833 51.2615 59.2333 50.0281 60.7C48.8281 62.1667 47.3115 63.3167 45.4781 64.15C43.6448 64.9833 41.5948 65.4 39.3281 65.4C36.5948 65.4 34.1615 64.8167 32.0281 63.65C29.8948 62.4833 28.2281 60.8167 27.0281 58.65C25.8281 56.4833 25.2281 53.95 25.2281 51.05C25.2281 48.15 25.8115 45.6167 26.9781 43.45C28.1781 41.2833 29.8448 39.6167 31.9781 38.45C34.1115 37.2833 36.5615 36.7 39.3281 36.7C42.0281 36.7 44.4281 37.2667 46.5281 38.4C48.6281 39.5333 50.2615 41.15 51.4281 43.25C52.6281 45.35 53.2281 47.8 53.2281 50.6ZM44.4781 48.35C44.4781 46.8833 43.9781 45.7167 42.9781 44.85C41.9781 43.9833 40.7281 43.55 39.2281 43.55C37.7948 43.55 36.5781 43.9667 35.5781 44.8C34.6115 45.6333 34.0115 46.8167 33.7781 48.35H44.4781ZM79.5887 58.8H66.4887L64.3887 65H55.4387L68.1387 29.9H78.0387L90.7387 65H81.6887L79.5887 58.8ZM77.3887 52.2L73.0387 39.35L68.7387 52.2H77.3887ZM98.9039 34.2C97.4039 34.2 96.1706 33.7667 95.2039 32.9C94.2706 32 93.8039 30.9 93.8039 29.6C93.8039 28.2667 94.2706 27.1667 95.2039 26.3C96.1706 25.4 97.4039 24.95 98.9039 24.95C100.371 24.95 101.571 25.4 102.504 26.3C103.471 27.1667 103.954 28.2667 103.954 29.6C103.954 30.9 103.471 32 102.504 32.9C101.571 33.7667 100.371 34.2 98.9039 34.2ZM103.154 37.1V65H94.6039V37.1H103.154Z" fill="white"/>
<path opacity="0.5" d="M3.95 84.259H7.213V85H3.04V75.913H3.95V84.259ZM15.0637 81.087C15.0637 81.399 15.055 81.6373 15.0377 81.802H9.14868C9.17468 82.3393 9.30468 82.7987 9.53868 83.18C9.77268 83.5613 10.0803 83.8517 10.4617 84.051C10.843 84.2417 11.259 84.337 11.7097 84.337C12.299 84.337 12.793 84.194 13.1917 83.908C13.599 83.622 13.8677 83.2363 13.9977 82.751H14.9597C14.7863 83.4443 14.4137 84.012 13.8417 84.454C13.2783 84.8873 12.5677 85.104 11.7097 85.104C11.0423 85.104 10.4443 84.9567 9.91568 84.662C9.38701 84.3587 8.97101 83.934 8.66768 83.388C8.37301 82.8333 8.22568 82.1877 8.22568 81.451C8.22568 80.7143 8.37301 80.0687 8.66768 79.514C8.96235 78.9593 9.37401 78.5347 9.90268 78.24C10.4313 77.9453 11.0337 77.798 11.7097 77.798C12.3857 77.798 12.975 77.9453 13.4777 78.24C13.989 78.5347 14.379 78.9333 14.6477 79.436C14.925 79.93 15.0637 80.4803 15.0637 81.087ZM14.1407 81.061C14.1493 80.5323 14.041 80.0817 13.8157 79.709C13.599 79.3363 13.3 79.0547 12.9187 78.864C12.5373 78.6733 12.1213 78.578 11.6707 78.578C10.9947 78.578 10.4183 78.7947 9.94168 79.228C9.46501 79.6613 9.20068 80.2723 9.14868 81.061H14.1407ZM16.4426 81.438C16.4426 80.71 16.5856 80.073 16.8716 79.527C17.1663 78.9723 17.5693 78.5477 18.0806 78.253C18.6006 77.9497 19.1856 77.798 19.8356 77.798C20.5116 77.798 21.0923 77.954 21.5776 78.266C22.0716 78.578 22.4269 78.9767 22.6436 79.462V77.902H23.5536V85H22.6436V83.427C22.4183 83.9123 22.0586 84.3153 21.5646 84.636C21.0793 84.948 20.4986 85.104 19.8226 85.104C19.1813 85.104 18.6006 84.9523 18.0806 84.649C17.5693 84.3457 17.1663 83.9167 16.8716 83.362C16.5856 82.8073 16.4426 82.166 16.4426 81.438ZM22.6436 81.451C22.6436 80.879 22.5266 80.3763 22.2926 79.943C22.0586 79.5097 21.7379 79.176 21.3306 78.942C20.9319 78.708 20.4899 78.591 20.0046 78.591C19.5019 78.591 19.0513 78.7037 18.6526 78.929C18.2539 79.1543 17.9376 79.4837 17.7036 79.917C17.4783 80.3417 17.3656 80.8487 17.3656 81.438C17.3656 82.0187 17.4783 82.53 17.7036 82.972C17.9376 83.4053 18.2539 83.739 18.6526 83.973C19.0513 84.1983 19.5019 84.311 20.0046 84.311C20.4899 84.311 20.9319 84.194 21.3306 83.96C21.7379 83.726 22.0586 83.3923 22.2926 82.959C22.5266 82.5257 22.6436 82.023 22.6436 81.451ZM26.6711 79.163C26.8704 78.721 27.1737 78.3787 27.5811 78.136C27.9971 77.8933 28.5041 77.772 29.1021 77.772V78.721H28.8551C28.1964 78.721 27.6677 78.8987 27.2691 79.254C26.8704 79.6093 26.6711 80.203 26.6711 81.035V85H25.7611V77.902H26.6711V79.163ZM33.929 77.772C34.7783 77.772 35.4717 78.0363 36.009 78.565C36.5463 79.085 36.815 79.8433 36.815 80.84V85H35.918V80.944C35.918 80.1727 35.723 79.5833 35.333 79.176C34.9517 78.7687 34.4273 78.565 33.76 78.565C33.0753 78.565 32.5293 78.7817 32.122 79.215C31.7147 79.6483 31.511 80.2853 31.511 81.126V85H30.601V77.902H31.511V79.111C31.7363 78.6777 32.0613 78.3483 32.486 78.123C32.9107 77.889 33.3917 77.772 33.929 77.772ZM39.4126 76.563C39.2306 76.563 39.0746 76.498 38.9446 76.368C38.8146 76.238 38.7496 76.0777 38.7496 75.887C38.7496 75.6963 38.8146 75.5403 38.9446 75.419C39.0746 75.289 39.2306 75.224 39.4126 75.224C39.5946 75.224 39.7506 75.289 39.8806 75.419C40.0106 75.5403 40.0756 75.6963 40.0756 75.887C40.0756 76.0777 40.0106 76.238 39.8806 76.368C39.7506 76.498 39.5946 76.563 39.4126 76.563ZM39.8676 77.902V85H38.9576V77.902H39.8676ZM45.3863 77.772C46.2356 77.772 46.9289 78.0363 47.4663 78.565C48.0036 79.085 48.2723 79.8433 48.2723 80.84V85H47.3753V80.944C47.3753 80.1727 47.1803 79.5833 46.7903 79.176C46.4089 78.7687 45.8846 78.565 45.2173 78.565C44.5326 78.565 43.9866 78.7817 43.5793 79.215C43.1719 79.6483 42.9683 80.2853 42.9683 81.126V85H42.0583V77.902H42.9683V79.111C43.1936 78.6777 43.5186 78.3483 43.9433 78.123C44.3679 77.889 44.8489 77.772 45.3863 77.772ZM53.3918 77.798C54.0592 77.798 54.6398 77.954 55.1338 78.266C55.6278 78.578 55.9832 78.9723 56.1998 79.449V77.902H57.1098V85.182C57.1098 85.832 56.9668 86.4083 56.6808 86.911C56.4035 87.4137 56.0135 87.7993 55.5108 88.068C55.0082 88.3453 54.4362 88.484 53.7948 88.484C52.8848 88.484 52.1265 88.2673 51.5198 87.834C50.9218 87.4007 50.5492 86.8113 50.4018 86.066H51.2988C51.4548 86.56 51.7495 86.9543 52.1828 87.249C52.6248 87.5437 53.1622 87.691 53.7948 87.691C54.2542 87.691 54.6658 87.5913 55.0298 87.392C55.3938 87.2013 55.6798 86.9153 55.8878 86.534C56.0958 86.1527 56.1998 85.702 56.1998 85.182V83.427C55.9745 83.9123 55.6148 84.3153 55.1208 84.636C54.6355 84.948 54.0592 85.104 53.3918 85.104C52.7418 85.104 52.1568 84.9523 51.6368 84.649C51.1255 84.3457 50.7225 83.9167 50.4278 83.362C50.1418 82.8073 49.9988 82.166 49.9988 81.438C49.9988 80.71 50.1418 80.073 50.4278 79.527C50.7225 78.9723 51.1255 78.5477 51.6368 78.253C52.1568 77.9497 52.7418 77.798 53.3918 77.798ZM56.1998 81.451C56.1998 80.879 56.0828 80.3763 55.8488 79.943C55.6148 79.5097 55.2942 79.176 54.8868 78.942C54.4882 78.708 54.0462 78.591 53.5608 78.591C53.0582 78.591 52.6075 78.7037 52.2088 78.929C51.8102 79.1543 51.4938 79.4837 51.2598 79.917C51.0345 80.3417 50.9218 80.8487 50.9218 81.438C50.9218 82.0187 51.0345 82.53 51.2598 82.972C51.4938 83.4053 51.8102 83.739 52.2088 83.973C52.6075 84.1983 53.0582 84.311 53.5608 84.311C54.0462 84.311 54.4882 84.194 54.8868 83.96C55.2942 83.726 55.6148 83.3923 55.8488 82.959C56.0828 82.5257 56.1998 82.023 56.1998 81.451ZM72.3747 77.902L70.1517 85H69.2417L67.2787 79.046L65.3157 85H64.3927L62.1697 77.902H63.0927L64.8607 84.077L66.8497 77.902H67.7597L69.7227 84.09L71.4777 77.902H72.3747ZM74.2003 76.563C74.0183 76.563 73.8623 76.498 73.7323 76.368C73.6023 76.238 73.5373 76.0777 73.5373 75.887C73.5373 75.6963 73.6023 75.5403 73.7323 75.419C73.8623 75.289 74.0183 75.224 74.2003 75.224C74.3823 75.224 74.5383 75.289 74.6683 75.419C74.7983 75.5403 74.8633 75.6963 74.8633 75.887C74.8633 76.0777 74.7983 76.238 74.6683 76.368C74.5383 76.498 74.3823 76.563 74.2003 76.563ZM74.6553 77.902V85H73.7453V77.902H74.6553ZM78.029 78.669V83.076C78.029 83.5093 78.1113 83.8083 78.276 83.973C78.4406 84.1377 78.731 84.22 79.147 84.22H79.979V85H79.004C78.3626 85 77.886 84.8527 77.574 84.558C77.262 84.2547 77.106 83.7607 77.106 83.076V78.669H76.118V77.902H77.106V76.121H78.029V77.902H79.979V78.669H78.029ZM84.9898 77.772C85.5271 77.772 86.0081 77.8847 86.4328 78.11C86.8661 78.3353 87.2041 78.682 87.4468 79.15C87.6981 79.6093 87.8238 80.1727 87.8238 80.84V85H86.9268V80.944C86.9268 80.1727 86.7318 79.5833 86.3418 79.176C85.9604 78.7687 85.4361 78.565 84.7688 78.565C84.0841 78.565 83.5381 78.7817 83.1308 79.215C82.7234 79.6483 82.5198 80.2853 82.5198 81.126V85H81.6098V75.38H82.5198V79.111C82.7451 78.6863 83.0744 78.357 83.5078 78.123C83.9498 77.889 84.4438 77.772 84.9898 77.772ZM98.9287 82.842H94.7947L94.0017 85H93.0397L96.3547 76.03H97.3817L100.684 85H99.7217L98.9287 82.842ZM98.6557 82.088L96.8617 77.174L95.0677 82.088H98.6557ZM102.729 76.563C102.547 76.563 102.391 76.498 102.261 76.368C102.131 76.238 102.066 76.0777 102.066 75.887C102.066 75.6963 102.131 75.5403 102.261 75.419C102.391 75.289 102.547 75.224 102.729 75.224C102.911 75.224 103.067 75.289 103.197 75.419C103.327 75.5403 103.392 75.6963 103.392 75.887C103.392 76.0777 103.327 76.238 103.197 76.368C103.067 76.498 102.911 76.563 102.729 76.563ZM103.184 77.902V85H102.274V77.902H103.184Z" fill="white"/>
<circle cx="99" cy="29" r="6" fill="#EC18BD"/>
</svg>
