<svg width="50" height="52" viewBox="0 0 50 52" fill="none" xmlns="http://www.w3.org/2000/svg">
<path d="M40.625 26C40.625 27.7635 40.3328 29.4588 39.7943 31.0401L37.2507 28.4965C37.4142 27.6898 37.5 26.8549 37.5 26V22.875C37.5 22.0121 38.1996 21.3125 39.0625 21.3125C39.9254 21.3125 40.625 22.0121 40.625 22.875V26Z" fill="black"/>
<path d="M25 38.5C27.5558 38.5 29.9325 37.7329 31.9124 36.4165L34.1575 38.6616C31.981 40.2385 29.382 41.2679 26.5625 41.5479V47.875H35.9375C36.8004 47.875 37.5 48.5746 37.5 49.4375C37.5 50.3004 36.8004 51 35.9375 51H14.0625C13.1996 51 12.5 50.3004 12.5 49.4375C12.5 48.5746 13.1996 47.875 14.0625 47.875H23.4375V41.5479C15.5417 40.7639 9.375 34.1021 9.375 26V22.875C9.375 22.0121 10.0746 21.3125 10.9375 21.3125C11.8004 21.3125 12.5 22.0121 12.5 22.875V26C12.5 32.9036 18.0964 38.5 25 38.5Z" fill="black"/>
<path d="M34.375 10.375V25.6209L31.25 22.4959V10.375C31.25 6.92322 28.4518 4.125 25 4.125C21.6719 4.125 18.9514 6.72628 18.7607 10.0066L16.1188 7.36465C17.3728 3.66366 20.8753 1 25 1C30.1777 1 34.375 5.19733 34.375 10.375Z" fill="black"/>
<path d="M29.6425 34.1466L27.3065 31.8106C26.5929 32.0941 25.8146 32.25 25 32.25C21.5482 32.25 18.75 29.4518 18.75 26V23.2541L15.625 20.1291V26C15.625 31.1777 19.8223 35.375 25 35.375C26.6891 35.375 28.2738 34.9283 29.6425 34.1466Z" fill="black"/>
<path d="M5.14526 5.22978L42.6453 42.7298L44.855 40.5201L7.35497 3.02007L5.14526 5.22978Z" fill="black"/>
<path d="M40.625 26C40.625 27.7635 40.3328 29.4588 39.7943 31.0401L37.2507 28.4965C37.4142 27.6898 37.5 26.8549 37.5 26V22.875C37.5 22.0121 38.1996 21.3125 39.0625 21.3125C39.9254 21.3125 40.625 22.0121 40.625 22.875V26Z" stroke="black"/>
<path d="M25 38.5C27.5558 38.5 29.9325 37.7329 31.9124 36.4165L34.1575 38.6616C31.981 40.2385 29.382 41.2679 26.5625 41.5479V47.875H35.9375C36.8004 47.875 37.5 48.5746 37.5 49.4375C37.5 50.3004 36.8004 51 35.9375 51H14.0625C13.1996 51 12.5 50.3004 12.5 49.4375C12.5 48.5746 13.1996 47.875 14.0625 47.875H23.4375V41.5479C15.5417 40.7639 9.375 34.1021 9.375 26V22.875C9.375 22.0121 10.0746 21.3125 10.9375 21.3125C11.8004 21.3125 12.5 22.0121 12.5 22.875V26C12.5 32.9036 18.0964 38.5 25 38.5Z" stroke="black"/>
<path d="M34.375 10.375V25.6209L31.25 22.4959V10.375C31.25 6.92322 28.4518 4.125 25 4.125C21.6719 4.125 18.9514 6.72628 18.7607 10.0066L16.1188 7.36465C17.3728 3.66366 20.8753 1 25 1C30.1777 1 34.375 5.19733 34.375 10.375Z" stroke="black"/>
<path d="M29.6425 34.1466L27.3065 31.8106C26.5929 32.0941 25.8146 32.25 25 32.25C21.5482 32.25 18.75 29.4518 18.75 26V23.2541L15.625 20.1291V26C15.625 31.1777 19.8223 35.375 25 35.375C26.6891 35.375 28.2738 34.9283 29.6425 34.1466Z" stroke="black"/>
<path d="M5.14526 5.22978L42.6453 42.7298L44.855 40.5201L7.35497 3.02007L5.14526 5.22978Z" stroke="black"/>
</svg>
